<?xml version="1.0" encoding="utf-8"?>
<!-- Generator: Adobe Illustrator 26.0.1, SVG Export Plug-In . SVG Version: 6.00 Build 0)  -->
<!DOCTYPE svg PUBLIC "-//W3C//DTD SVG 1.1//EN" "http://www.w3.org/Graphics/SVG/1.1/DTD/svg11.dtd" [
	<!ENTITY ns_extend "http://ns.adobe.com/Extensibility/1.0/">
	<!ENTITY ns_ai "http://ns.adobe.com/AdobeIllustrator/10.0/">
	<!ENTITY ns_graphs "http://ns.adobe.com/Graphs/1.0/">
	<!ENTITY ns_vars "http://ns.adobe.com/Variables/1.0/">
	<!ENTITY ns_imrep "http://ns.adobe.com/ImageReplacement/1.0/">
	<!ENTITY ns_sfw "http://ns.adobe.com/SaveForWeb/1.0/">
	<!ENTITY ns_custom "http://ns.adobe.com/GenericCustomNamespace/1.0/">
	<!ENTITY ns_adobe_xpath "http://ns.adobe.com/XPath/1.0/">
]>
<svg version="1.1" id="Layer_1" xmlns:x="&ns_extend;" xmlns:i="&ns_ai;" xmlns:graph="&ns_graphs;"
	 xmlns="http://www.w3.org/2000/svg" xmlns:xlink="http://www.w3.org/1999/xlink" x="0px" y="0px" width="299.5px" height="59.7px"
	 viewBox="0 0 299.5 59.7" style="enable-background:new 0 0 299.5 59.7;" xml:space="preserve">
<style type="text/css">
	.st0{clip-path:url(#SVGID_00000152265627222040788790000009592952954700323769_);}
	.st1{clip-path:url(#SVGID_00000167398395925383100310000010455348573986707093_);}
	.st2{fill:#FFFFFF;}
</style>
<metadata>
	<sfw  xmlns="&ns_sfw;">
		<slices></slices>
		<sliceSourceBounds  bottomLeftOrigin="true" height="58.4" width="304.3" x="99.7" y="220.8"></sliceSourceBounds>
	</sfw>
</metadata>
<g>
	<defs>
		<rect id="SVGID_1_" x="116.7" y="1.2" width="183.1" height="58.4"/>
	</defs>
	<clipPath id="SVGID_00000098205005764387784250000010748118616696448132_">
		<use xlink:href="#SVGID_1_"  style="overflow:visible;"/>
	</clipPath>
	<g style="clip-path:url(#SVGID_00000098205005764387784250000010748118616696448132_);">
		<g>
			<defs>
				<path id="SVGID_00000016051123238317278670000008218876368023709875_" d="M159.8,1.2h131.5c2.9,0,5.5,1.5,6.9,4
					c1.4,2.5,1.4,5.5-0.1,8l-20.3,34.3c-4.4,7.5-12.5,12-21.1,12H125.2c-2.9,0-5.5-1.5-6.9-4c-1.4-2.5-1.4-5.5,0.1-8l20.3-34.3
					C143.1,5.7,151.1,1.2,159.8,1.2z"/>
			</defs>
			<clipPath id="SVGID_00000008125765087170664430000011792521436276072861_">
				<use xlink:href="#SVGID_00000016051123238317278670000008218876368023709875_"  style="overflow:visible;"/>
			</clipPath>
			<g style="clip-path:url(#SVGID_00000008125765087170664430000011792521436276072861_);">
				<path d="M111.2,1.2h194v58.4h-194V1.2z"/>
			</g>
		</g>
	</g>
</g>
<g>
	<g transform="translate(72.023781, 202.018808)">
		<g>
			<path d="M-54.7-179.1c3.7,0,6.7,1.3,9,3.8c2.3,2.5,3.4,5.8,3.4,9.9c0,4-1.1,7.3-3.4,9.7c-2.2,2.5-5.2,3.7-8.9,3.7
				c-3.5,0-6.2-1.3-8.1-3.8v3.5h-8.5v-36.5h8.5v13.5C-60.6-177.8-58-179.1-54.7-179.1z M-56.7-158.8c1.8,0,3.2-0.6,4.3-1.9
				c1.1-1.3,1.6-2.9,1.6-5c0-2-0.6-3.7-1.6-5c-1.1-1.3-2.5-1.9-4.3-1.9c-1.7,0-3.1,0.6-4.2,1.9c-1.1,1.3-1.6,2.9-1.6,5
				c0,2.1,0.5,3.7,1.6,5C-59.9-159.4-58.5-158.8-56.7-158.8z"/>
		</g>
	</g>
</g>
<g>
	<g transform="translate(95.172962, 202.018808)">
		<g>
			<path d="M-54.8-152.3h-8.5v-36.5h8.5V-152.3z"/>
		</g>
	</g>
</g>
<g>
	<g transform="translate(104.904345, 202.018808)">
		<g>
			<path d="M-48.5-179.2c3.6,0,6.4,0.8,8.5,2.5c2,1.7,3.1,4,3.1,7v17.3h-8.3v-3c-1.7,2.3-4.4,3.4-8.1,3.4c-2.8,0-5-0.8-6.6-2.3
				c-1.6-1.5-2.5-3.5-2.5-6c0-2.5,0.9-4.5,2.6-5.9c1.8-1.4,4.3-2.1,7.5-2.1h7v-0.4c0-1.3-0.4-2.3-1.3-3.1c-0.9-0.7-2.1-1.1-3.9-1.1
				c-2.4,0-5,0.7-7.9,2.2l-2.4-5.6C-56.5-178.2-52.4-179.2-48.5-179.2z M-50.7-157.7c1.3,0,2.5-0.3,3.5-1c1-0.7,1.7-1.6,1.9-2.6
				v-2.4h-5.4c-2.6,0-3.8,1-3.8,2.9c0,1,0.3,1.8,1,2.3C-52.8-157.9-51.9-157.7-50.7-157.7z"/>
		</g>
	</g>
</g>
<g>
	<g transform="translate(124.920246, 202.018808)">
		<g>
			<path d="M-42.1-179.1c2.6,0,5,0.5,7,1.6c2.1,1,3.7,2.5,4.8,4.4l-6.1,3.7c-1.3-1.8-3.1-2.8-5.4-2.8c-1.6,0-3,0.6-4,1.9
				c-1,1.2-1.5,2.8-1.5,4.8c0,2,0.5,3.7,1.5,4.9c1,1.2,2.4,1.8,4,1.8c2.5,0,4.3-1,5.4-3l6.2,3.6c-1.1,2-2.6,3.5-4.7,4.6
				c-2.1,1.1-4.5,1.6-7.3,1.6c-4.1,0-7.4-1.2-9.9-3.7c-2.5-2.5-3.8-5.7-3.8-9.8c0-4.1,1.3-7.4,3.8-9.9
				C-49.6-177.8-46.2-179.1-42.1-179.1z"/>
		</g>
	</g>
</g>
<g>
	<g transform="translate(143.535382, 202.018808)">
		<g>
			<path d="M-35.9-162.5l-2.8,3v7.2h-8.5v-36.5h8.5v19.2l8.8-9.3h9.6l-9.7,10.2l10,16.3h-10.1L-35.9-162.5z"/>
		</g>
	</g>
</g>
<g>
	<g transform="translate(177.420521, 202.018808)">
		<g>
			<path class="st2" d="M-9.5-188.8v36.5H-18v-3.5c-1.9,2.6-4.6,3.8-8,3.8c-3.7,0-6.7-1.3-9-3.8c-2.3-2.5-3.4-5.8-3.4-9.9
				c0-4.1,1.1-7.3,3.3-9.8c2.2-2.5,5.2-3.7,8.9-3.7c3.5,0,6.2,1.3,8.2,3.8v-13.5H-9.5z M-28.2-160.5c1.1,1.3,2.5,1.9,4.3,1.9
				c1.8,0,3.2-0.6,4.3-1.9c1.1-1.3,1.6-2.9,1.6-5c0-2-0.5-3.7-1.6-5c-1.1-1.3-2.5-1.9-4.3-1.9c-1.8,0-3.2,0.6-4.3,1.9
				c-1.1,1.2-1.6,2.9-1.7,5C-29.8-163.4-29.3-161.8-28.2-160.5z"/>
		</g>
	</g>
</g>
<g>
	<g transform="translate(200.606564, 202.018808)">
		<g>
			<path class="st2" d="M4.9-152.3h-8.4l-5.2-16.8l-5.2,16.8h-8.5l-9.7-26.5h8.6l5.5,18.3l5.3-18.3h8.1l5.5,18.3l5.4-18.3h8.3
				L4.9-152.3z"/>
		</g>
	</g>
</g>
<g>
	<g transform="translate(233.044984, 202.018808)">
		<g>
			<path class="st2" d="M-5.7-179.2c3.6,0,6.4,0.8,8.5,2.5c2,1.7,3.1,4,3.1,7v17.3h-8.3v-3c-1.7,2.3-4.4,3.4-8.1,3.4
				c-2.8,0-5-0.8-6.6-2.3c-1.6-1.5-2.5-3.5-2.5-6c0-2.5,0.9-4.5,2.6-5.9c1.8-1.4,4.3-2.1,7.5-2.1h7v-0.4c0-1.3-0.4-2.3-1.3-3.1
				c-0.9-0.7-2.1-1.1-3.9-1.1c-2.4,0-5,0.7-7.9,2.2l-2.4-5.6C-13.7-178.2-9.6-179.2-5.7-179.2z M-8-157.7c1.3,0,2.5-0.3,3.5-1
				c1-0.7,1.7-1.6,1.9-2.6v-2.4h-5.4c-2.6,0-3.8,1-3.8,2.9c0,1,0.3,1.8,1,2.3C-10.1-157.9-9.2-157.7-8-157.7z"/>
		</g>
	</g>
</g>
<g>
	<g transform="translate(253.060885, 202.018808)">
		<g>
			<path class="st2" d="M14.3-178.8v24.1c0,3.7-1.3,6.7-4,8.9c-2.6,2.2-6.1,3.4-10.4,3.4c-4.4,0-8.3-1.2-11.8-3.5l2.9-5.8
				c2.6,1.8,5.3,2.6,8.2,2.6c2,0,3.6-0.5,4.8-1.5c1.2-1,1.8-2.3,1.8-4v-2.8c-1.8,2.4-4.3,3.5-7.6,3.5c-3.4,0-6.1-1.2-8.2-3.5
				c-2.1-2.4-3.2-5.5-3.2-9.3c0-3.7,1-6.8,3.1-9.1c2.1-2.3,4.8-3.5,8.1-3.5c3.4,0,6,1.2,7.8,3.5v-3.2H14.3z M0.4-159.9
				c1.6,0,3-0.6,4-1.8c1-1.2,1.5-2.7,1.5-4.6c0-1.9-0.5-3.5-1.5-4.7c-1-1.2-2.3-1.8-4-1.8c-1.7,0-3,0.6-4.1,1.8
				c-1,1.2-1.5,2.8-1.5,4.7c0,1.9,0.5,3.5,1.5,4.6C-2.6-160.5-1.3-159.9,0.4-159.9z"/>
		</g>
	</g>
</g>
</svg>
